<svg width="31" height="31" viewBox="0 0 31 31" fill="none" xmlns="http://www.w3.org/2000/svg">
<path d="M6.83594 30.625H0.478516V10.1855H6.83594V30.625ZM3.69141 7.38281C2.6888 7.38281 1.82292 7.01823 1.09375 6.28906C0.364583 5.5599 0 4.69401 0 3.69141C0 2.6888 0.364583 1.82292 1.09375 1.09375C1.82292 0.364583 2.6888 0 3.69141 0C4.32943 0 4.92188 0.159505 5.46875 0.478516C6.0612 0.797526 6.51693 1.25326 6.83594 1.8457C7.20052 2.39258 7.38281 3.00781 7.38281 3.69141C7.38281 4.32943 7.20052 4.94466 6.83594 5.53711C6.51693 6.08398 6.0612 6.53971 5.46875 6.9043C4.92188 7.22331 4.32943 7.38281 3.69141 7.38281ZM30.625 30.625H24.2676V20.6445C24.2676 19.8698 24.2448 19.2546 24.1992 18.7988C24.1536 18.2975 24.0397 17.7507 23.8574 17.1582C23.6751 16.5202 23.3333 16.0417 22.832 15.7227C22.3763 15.4036 21.7611 15.2441 20.9863 15.2441C19.4824 15.2441 18.457 15.7227 17.9102 16.6797C17.4089 17.6367 17.1582 18.9128 17.1582 20.5078V30.625H10.8008V10.1855H16.9531V12.9883H17.0215C17.4772 12.0768 18.2292 11.3021 19.2773 10.6641C20.3255 9.98047 21.5788 9.63867 23.0371 9.63867C24.5866 9.63867 25.8626 9.88932 26.8652 10.3906C27.9134 10.8464 28.6882 11.5527 29.1895 12.5098C29.7363 13.4212 30.1009 14.4238 30.2832 15.5176C30.5111 16.6113 30.625 17.9102 30.625 19.4141V30.625Z" fill="#26235C"/>
</svg>
