<svg width="35" height="29" viewBox="0 0 35 29" fill="none" xmlns="http://www.w3.org/2000/svg">
<path d="M31.377 7.10938C31.4225 7.29167 31.4453 7.58789 31.4453 7.99805C31.4453 10.4134 30.9896 12.8288 30.0781 15.2441C29.1667 17.6139 27.8678 19.8014 26.1816 21.8066C24.541 23.7663 22.3991 25.3613 19.7559 26.5918C17.1126 27.8223 14.196 28.4375 11.0059 28.4375C6.99544 28.4375 3.32682 27.3665 0 25.2246C0.501302 25.2702 1.07096 25.293 1.70898 25.293C5.03581 25.293 8.02083 24.2676 10.6641 22.2168C9.06901 22.2168 7.65625 21.7611 6.42578 20.8496C5.24089 19.8926 4.42057 18.7077 3.96484 17.2949C4.42057 17.3405 4.85352 17.3633 5.26367 17.3633C5.90169 17.3633 6.53971 17.2949 7.17773 17.1582C6.08398 16.9303 5.10417 16.4746 4.23828 15.791C3.3724 15.1074 2.6888 14.2871 2.1875 13.3301C1.6862 12.3275 1.43555 11.2565 1.43555 10.1172V9.98047C2.43815 10.5729 3.50911 10.8919 4.64844 10.9375C2.50651 9.47917 1.43555 7.47396 1.43555 4.92188C1.43555 3.64583 1.77734 2.43815 2.46094 1.29883C4.23828 3.5319 6.40299 5.30924 8.95508 6.63086C11.5527 7.95247 14.3099 8.68164 17.2266 8.81836C17.1354 8.27148 17.0898 7.72461 17.0898 7.17773C17.0898 5.2181 17.7734 3.5319 19.1406 2.11914C20.5534 0.70638 22.2396 0 24.1992 0C26.2956 0 28.0501 0.751953 29.4629 2.25586C31.1035 1.93685 32.6302 1.36719 34.043 0.546875C33.4961 2.23307 32.4479 3.55469 30.8984 4.51172C32.2656 4.32943 33.6328 3.94206 35 3.34961C33.9974 4.80794 32.7897 6.0612 31.377 7.10938Z" fill="#26235C"/>
</svg>
